<svg width="32" height="32" viewBox="0 0 32 32" fill="none" xmlns="http://www.w3.org/2000/svg">
<path d="M27.04 4.57302C26.3758 4.18001 25.6183 3.97266 24.8466 3.97266C24.0749 3.97266 23.3174 4.18001 22.6533 4.57302L10.6666 11.7864V7.99969C10.6666 6.93882 10.2452 5.92141 9.49505 5.17126C8.74491 4.42112 7.72749 3.99969 6.66663 3.99969C5.60576 3.99969 4.58834 4.42112 3.8382 5.17126C3.08805 5.92141 2.66663 6.93882 2.66663 7.99969V23.9997C2.66663 25.0606 3.08805 26.078 3.8382 26.8281C4.58834 27.5783 5.60576 27.9997 6.66663 27.9997C7.72749 27.9997 8.74491 27.5783 9.49505 26.8281C10.2452 26.078 10.6666 25.0606 10.6666 23.9997V20.213L22.6666 27.373C23.343 27.7803 24.1171 27.9968 24.9066 27.9997C25.6599 27.999 26.4 27.8014 27.0533 27.4264C27.7603 27.0279 28.3466 26.4459 28.7502 25.7418C29.1539 25.0378 29.3599 24.2378 29.3466 23.4264V8.55969C29.3562 7.74915 29.147 6.95104 28.7411 6.24942C28.3351 5.54781 27.7474 4.96867 27.04 4.57302ZM7.99996 23.9997C7.99996 24.3533 7.85948 24.6925 7.60944 24.9425C7.35939 25.1925 7.02025 25.333 6.66663 25.333C6.313 25.333 5.97387 25.1925 5.72382 24.9425C5.47377 24.6925 5.33329 24.3533 5.33329 23.9997V7.99969C5.33329 7.64607 5.47377 7.30693 5.72382 7.05688C5.97387 6.80683 6.313 6.66636 6.66663 6.66636C7.02025 6.66636 7.35939 6.80683 7.60944 7.05688C7.85948 7.30693 7.99996 7.64607 7.99996 7.99969V23.9997ZM26.6666 23.4397C26.6743 23.7771 26.5903 24.1103 26.4235 24.4038C26.2568 24.6973 26.0137 24.9401 25.72 25.1064C25.4629 25.263 25.1677 25.3458 24.8666 25.3458C24.5656 25.3458 24.2704 25.263 24.0133 25.1064L11.5733 17.6397C11.295 17.466 11.0655 17.2243 10.9064 16.9374C10.7473 16.6504 10.6638 16.3278 10.6638 15.9997C10.6638 15.6716 10.7473 15.3489 10.9064 15.062C11.0655 14.7751 11.295 14.5334 11.5733 14.3597L24 6.91969C24.2671 6.75095 24.5773 6.66298 24.8933 6.66636C25.1836 6.67094 25.4679 6.74891 25.72 6.89302C26.0137 7.05929 26.2568 7.30208 26.4235 7.59557C26.5903 7.88906 26.6743 8.22225 26.6666 8.55969V23.4397Z" fill="#0061FF"/>
</svg>
