<svg width="178" height="64" viewBox="0 0 178 64" fill="none" xmlns="http://www.w3.org/2000/svg">
<g filter="url(#filter0_d_926_826)">
<rect x="114" width="64" height="64" rx="32" fill="#EAECF0" shape-rendering="crispEdges"/>
<path d="M140.375 20C138 20 136 21.92 136 24.2V39.8C136 42.08 138 44 140.375 44C142.75 44 144.75 42.08 144.75 39.8V24.2C144.75 21.92 142.75 20 140.375 20ZM151.625 20C149.25 20 147.25 21.92 147.25 24.2V39.8C147.25 42.08 149.25 44 151.625 44C154 44 156 42.08 156 39.8V24.2C156 21.92 154 20 151.625 20Z" fill="#0061FF"/>
</g>
<g filter="url(#filter1_d_926_826)">
<rect width="64" height="64" rx="32" fill="#EAECF0" shape-rendering="crispEdges"/>
<rect x="24" y="24" width="16" height="16" fill="#D13329"/>
</g>
<defs>
<filter id="filter0_d_926_826" x="100" y="-14" width="92" height="92" filterUnits="userSpaceOnUse" color-interpolation-filters="sRGB">
<feFlood flood-opacity="0" result="BackgroundImageFix"/>
<feColorMatrix in="SourceAlpha" type="matrix" values="0 0 0 0 0 0 0 0 0 0 0 0 0 0 0 0 0 0 127 0" result="hardAlpha"/>
<feMorphology radius="4" operator="dilate" in="SourceAlpha" result="effect1_dropShadow_926_826"/>
<feOffset/>
<feGaussianBlur stdDeviation="5"/>
<feComposite in2="hardAlpha" operator="out"/>
<feColorMatrix type="matrix" values="0 0 0 0 0.333333 0 0 0 0 0.333333 0 0 0 0 0.333333 0 0 0 0.07 0"/>
<feBlend mode="normal" in2="BackgroundImageFix" result="effect1_dropShadow_926_826"/>
<feBlend mode="normal" in="SourceGraphic" in2="effect1_dropShadow_926_826" result="shape"/>
</filter>
<filter id="filter1_d_926_826" x="-14" y="-14" width="92" height="92" filterUnits="userSpaceOnUse" color-interpolation-filters="sRGB">
<feFlood flood-opacity="0" result="BackgroundImageFix"/>
<feColorMatrix in="SourceAlpha" type="matrix" values="0 0 0 0 0 0 0 0 0 0 0 0 0 0 0 0 0 0 127 0" result="hardAlpha"/>
<feMorphology radius="4" operator="dilate" in="SourceAlpha" result="effect1_dropShadow_926_826"/>
<feOffset/>
<feGaussianBlur stdDeviation="5"/>
<feComposite in2="hardAlpha" operator="out"/>
<feColorMatrix type="matrix" values="0 0 0 0 0.333333 0 0 0 0 0.333333 0 0 0 0 0.333333 0 0 0 0.07 0"/>
<feBlend mode="normal" in2="BackgroundImageFix" result="effect1_dropShadow_926_826"/>
<feBlend mode="normal" in="SourceGraphic" in2="effect1_dropShadow_926_826" result="shape"/>
</filter>
</defs>
</svg>
