<svg width="32" height="32" viewBox="0 0 32 32" fill="none" xmlns="http://www.w3.org/2000/svg">
<path d="M21.3333 5.33333H20.5467L20.9467 4.94666C21.071 4.82235 21.1696 4.67476 21.2369 4.51233C21.3042 4.3499 21.3388 4.17581 21.3388 4C21.3388 3.82419 21.3042 3.65009 21.2369 3.48767C21.1696 3.32524 21.071 3.17765 20.9467 3.05333C20.8223 2.92901 20.6748 2.8304 20.5123 2.76312C20.3499 2.69584 20.1758 2.66121 20 2.66121C19.6449 2.66121 19.3044 2.80226 19.0533 3.05333L16.3867 5.72C16.2617 5.84395 16.1625 5.99142 16.0948 6.1539C16.0271 6.31637 15.9923 6.49065 15.9923 6.66666C15.9923 6.84268 16.0271 7.01695 16.0948 7.17943C16.1625 7.34191 16.2617 7.48938 16.3867 7.61333L19.0533 10.28C19.1773 10.405 19.3248 10.5042 19.4872 10.5719C19.6497 10.6395 19.824 10.6744 20 10.6744C20.176 10.6744 20.3503 10.6395 20.5128 10.5719C20.6752 10.5042 20.8227 10.405 20.9467 10.28C21.0716 10.156 21.1708 10.0086 21.2385 9.8461C21.3062 9.68362 21.3411 9.50935 21.3411 9.33333C21.3411 9.15732 21.3062 8.98304 21.2385 8.82056C21.1708 8.65808 21.0716 8.51061 20.9467 8.38666L20.5467 8H21.3333C22.3942 8 23.4116 8.42143 24.1618 9.17157C24.9119 9.92172 25.3333 10.9391 25.3333 12V14.6667C25.3333 15.0203 25.4738 15.3594 25.7239 15.6095C25.9739 15.8595 26.313 16 26.6667 16C27.0203 16 27.3594 15.8595 27.6095 15.6095C27.8595 15.3594 28 15.0203 28 14.6667V12C28 10.2319 27.2976 8.5362 26.0474 7.28595C24.7971 6.03571 23.1014 5.33333 21.3333 5.33333ZM21.3333 24H20V14.6667C20 14.313 19.8595 13.9739 19.6095 13.7239C19.3594 13.4738 19.0203 13.3333 18.6667 13.3333H9.33333V12C9.33333 11.6464 9.19286 11.3072 8.94281 11.0572C8.69276 10.8071 8.35362 10.6667 8 10.6667C7.64638 10.6667 7.30724 10.8071 7.05719 11.0572C6.80714 11.3072 6.66667 11.6464 6.66667 12V13.3333H5.33333C4.97971 13.3333 4.64057 13.4738 4.39052 13.7239C4.14048 13.9739 4 14.313 4 14.6667C4 15.0203 4.14048 15.3594 4.39052 15.6095C4.64057 15.8595 4.97971 16 5.33333 16H6.66667V25.3333C6.66667 25.687 6.80714 26.0261 7.05719 26.2761C7.30724 26.5262 7.64638 26.6667 8 26.6667H17.3333V28C17.3333 28.3536 17.4738 28.6928 17.7239 28.9428C17.9739 29.1929 18.313 29.3333 18.6667 29.3333C19.0203 29.3333 19.3594 29.1929 19.6095 28.9428C19.8595 28.6928 20 28.3536 20 28V26.6667H21.3333C21.687 26.6667 22.0261 26.5262 22.2761 26.2761C22.5262 26.0261 22.6667 25.687 22.6667 25.3333C22.6667 24.9797 22.5262 24.6406 22.2761 24.3905C22.0261 24.1405 21.687 24 21.3333 24ZM17.3333 24H9.33333V16H17.3333V24Z" fill="#75839D"/>
</svg>
