<svg width="32" height="32" viewBox="0 0 32 32" fill="none" xmlns="http://www.w3.org/2000/svg">
<path d="M7.33329 23.3334H5.33329V8.66671H15.7333L14.6666 9.72004C14.4156 9.96934 14.2738 10.3082 14.2726 10.662C14.2713 11.0158 14.4107 11.3556 14.66 11.6067C14.9093 11.8578 15.2481 11.9995 15.6019 12.0008C15.9557 12.002 16.2956 11.8627 16.5466 11.6134L19.88 8.28004C20.0049 8.15609 20.1041 8.00862 20.1718 7.84614C20.2395 7.68366 20.2744 7.50939 20.2744 7.33337C20.2744 7.15736 20.2395 6.98308 20.1718 6.8206C20.1041 6.65813 20.0049 6.51066 19.88 6.38671L16.5466 3.05337C16.2968 2.80504 15.9589 2.66565 15.6066 2.66565C15.2544 2.66565 14.9164 2.80504 14.6666 3.05337C14.5417 3.17732 14.4425 3.32479 14.3748 3.48727C14.3071 3.64975 14.2722 3.82402 14.2722 4.00004C14.2722 4.17606 14.3071 4.35033 14.3748 4.51281C14.4425 4.67529 14.5417 4.82276 14.6666 4.94671L15.72 6.00004H3.99996C3.64634 6.00004 3.3072 6.14052 3.05715 6.39056C2.8071 6.64061 2.66663 6.97975 2.66663 7.33337V24.6667C2.66663 25.0203 2.8071 25.3595 3.05715 25.6095C3.3072 25.8596 3.64634 26 3.99996 26H7.33329C7.68691 26 8.02605 25.8596 8.2761 25.6095C8.52615 25.3595 8.66663 25.0203 8.66663 24.6667C8.66663 24.3131 8.52615 23.9739 8.2761 23.7239C8.02605 23.4738 7.68691 23.3334 7.33329 23.3334ZM28 6.00004H24.6666C24.313 6.00004 23.9739 6.14052 23.7238 6.39056C23.4738 6.64061 23.3333 6.97975 23.3333 7.33337C23.3333 7.687 23.4738 8.02613 23.7238 8.27618C23.9739 8.52623 24.313 8.66671 24.6666 8.66671H26.6666V23.3334H15.5066L16.56 22.28C16.6849 22.1561 16.7841 22.0086 16.8518 21.8461C16.9195 21.6837 16.9544 21.5094 16.9544 21.3334C16.9544 21.1574 16.9195 20.9831 16.8518 20.8206C16.7841 20.6581 16.6849 20.5107 16.56 20.3867C16.3101 20.1384 15.9722 19.999 15.62 19.999C15.2677 19.999 14.9298 20.1384 14.68 20.3867L11.3466 23.72C11.2217 23.844 11.1225 23.9915 11.0548 24.1539C10.9871 24.3164 10.9522 24.4907 10.9522 24.6667C10.9522 24.8427 10.9871 25.017 11.0548 25.1795C11.1225 25.342 11.2217 25.4894 11.3466 25.6134L14.68 28.9467C14.931 29.196 15.2709 29.3354 15.6247 29.3341C15.9785 29.3329 16.3173 29.1911 16.5666 28.94C16.8159 28.689 16.9553 28.3491 16.954 27.9953C16.9528 27.6415 16.811 27.3027 16.56 27.0534L15.5066 26H28C28.3536 26 28.6927 25.8596 28.9428 25.6095C29.1928 25.3595 29.3333 25.0203 29.3333 24.6667V7.33337C29.3333 6.97975 29.1928 6.64061 28.9428 6.39056C28.6927 6.14052 28.3536 6.00004 28 6.00004Z" fill="#0061FF"/>
</svg>
