<svg width="32" height="32" viewBox="0 0 32 32" fill="none" xmlns="http://www.w3.org/2000/svg">
<path d="M12 10.3333C12 6.66667 8.56004 4.32 8.41337 4.22667C8.19288 4.07763 7.93284 3.99799 7.66671 3.99799C7.40057 3.99799 7.14053 4.07763 6.92004 4.22667C6.77337 4.33333 3.33337 6.66667 3.33337 10.3333C3.33337 11.4826 3.78992 12.5848 4.60258 13.3975C5.41524 14.2101 6.51744 14.6667 7.66671 14.6667C8.81598 14.6667 9.91818 14.2101 10.7308 13.3975C11.5435 12.5848 12 11.4826 12 10.3333ZM7.66671 12C7.22468 12 6.80076 11.8244 6.4882 11.5118C6.17564 11.1993 6.00004 10.7754 6.00004 10.3333C6.10976 9.06917 6.70758 7.89746 7.66671 7.06667C8.63156 7.89296 9.23065 9.06718 9.33337 10.3333C9.33337 10.7754 9.15778 11.1993 8.84522 11.5118C8.53266 11.8244 8.10873 12 7.66671 12ZM15.7467 13.56C15.5262 13.411 15.2662 13.3313 15 13.3313C14.7339 13.3313 14.4739 13.411 14.2534 13.56C14.0267 13.72 8.66671 17.4267 8.66671 23C8.66671 24.6797 9.33397 26.2906 10.5217 27.4783C11.7094 28.6661 13.3203 29.3333 15 29.3333C16.6797 29.3333 18.2907 28.6661 19.4784 27.4783C20.6661 26.2906 21.3334 24.6797 21.3334 23C21.3334 17.3333 16 13.7067 15.7467 13.56ZM15 26.6667C14.5185 26.6667 14.0417 26.5718 13.5969 26.3876C13.152 26.2033 12.7478 25.9332 12.4073 25.5927C12.0668 25.2522 11.7967 24.848 11.6125 24.4032C11.4282 23.9583 11.3334 23.4815 11.3334 23C11.3334 19.92 13.7467 17.44 15.0134 16.3333C16.2667 17.3867 18.6667 19.84 18.6667 23C18.6667 23.4815 18.5719 23.9583 18.3876 24.4032C18.2033 24.848 17.9332 25.2522 17.5928 25.5927C17.2523 25.9332 16.8481 26.2033 16.4032 26.3876C15.9584 26.5718 15.4816 26.6667 15 26.6667ZM24.08 2.89333C23.8595 2.7443 23.5995 2.66466 23.3334 2.66466C23.0672 2.66466 22.8072 2.7443 22.5867 2.89333C22.4 3.02667 18 6.06667 18 10.6667C18 12.0812 18.5619 13.4377 19.5621 14.4379C20.5623 15.4381 21.9189 16 23.3334 16C24.7479 16 26.1044 15.4381 27.1046 14.4379C28.1048 13.4377 28.6667 12.0812 28.6667 10.6667C28.6667 6.01333 24.2667 3.01333 24.08 2.89333ZM23.3334 13.3333C22.6261 13.3333 21.9479 13.0524 21.4478 12.5523C20.9477 12.0522 20.6667 11.3739 20.6667 10.6667C20.7581 9.70389 21.0411 8.76911 21.499 7.91731C21.957 7.06551 22.5807 6.31389 23.3334 5.70667C24.0889 6.3113 24.7145 7.06229 25.1728 7.91459C25.631 8.7669 25.9124 9.70297 26 10.6667C26 11.3739 25.7191 12.0522 25.219 12.5523C24.7189 13.0524 24.0406 13.3333 23.3334 13.3333Z" fill="#75839D"/>
</svg>
