<svg width="108" height="192" viewBox="0 0 108 192" fill="none" xmlns="http://www.w3.org/2000/svg">
<g clip-path="url(#clip0_131_10876)">
<path fill-rule="evenodd" clip-rule="evenodd" d="M96 36C96 36 91.65 35.406 90 30L84.666 6C84.666 2.682 81.936 0 78.57 0H29.808C26.442 0 23.712 2.682 23.712 6L18 30C16.398 36.906 12 36 12 36V42H96V36C96 36 94.962 35.904 96 36ZM12 156C12 156 13.038 156.096 12 156C12 156 16.35 156.588 18 162L23.334 186C23.334 189.312 26.064 192 29.43 192H78.192C81.564 192 84.294 189.312 84.294 186L90 162C91.602 155.094 96 156 96 156V150H12V156Z" fill="#D6DAE2"/>
<path d="M90 36H18C8.058 36 0 44.058 0 54V138C0 147.936 8.058 156 18 156H90C99.936 156 108 147.936 108 138V54C108 44.058 99.936 36 90 36Z" fill="#333333"/>
<path d="M95.9581 54.0122H12.0601V137.982H95.9581V54.0122Z" fill="#4D4D4D"/>
<path d="M54 108C60.6274 108 66 102.627 66 96C66 89.3726 60.6274 84 54 84C47.3726 84 42 89.3726 42 96C42 102.627 47.3726 108 54 108Z" fill="#EAF1F6"/>
<path d="M66 78C69.3137 78 72 75.3137 72 72C72 68.6863 69.3137 66 66 66C62.6863 66 60 68.6863 60 72C60 75.3137 62.6863 78 66 78Z" fill="#48A0DC"/>
<path d="M66 126C69.3137 126 72 123.314 72 120C72 116.686 69.3137 114 66 114C62.6863 114 60 116.686 60 120C60 123.314 62.6863 126 66 126Z" fill="#FFCC66"/>
<path d="M78 102C81.3137 102 84 99.3137 84 96C84 92.6863 81.3137 90 78 90C74.6863 90 72 92.6863 72 96C72 99.3137 74.6863 102 78 102Z" fill="#88C057"/>
<path d="M30 102C33.3137 102 36 99.3137 36 96C36 92.6863 33.3137 90 30 90C26.6863 90 24 92.6863 24 96C24 99.3137 26.6863 102 30 102Z" fill="#9B7CAB"/>
<path d="M42 78C45.3137 78 48 75.3137 48 72C48 68.6863 45.3137 66 42 66C38.6863 66 36 68.6863 36 72C36 75.3137 38.6863 78 42 78Z" fill="#FF8833"/>
<path d="M42 126C45.3137 126 48 123.314 48 120C48 116.686 45.3137 114 42 114C38.6863 114 36 116.686 36 120C36 123.314 38.6863 126 42 126Z" fill="#F06EAA"/>
</g>
<defs>
<clipPath id="clip0_131_10876">
<rect width="108" height="192" fill="white"/>
</clipPath>
</defs>
</svg>
