<svg width="96" height="16" viewBox="0 0 96 16" fill="none" xmlns="http://www.w3.org/2000/svg">
<g clip-path="url(#clip0_1111_1426)">
<path d="M2.86606 14.85C2.78806 15.294 3.22606 15.641 3.61206 15.443L8.00206 13.187L12.3911 15.443C12.7771 15.641 13.2151 15.294 13.1371 14.851L12.3071 10.121L15.8291 6.76501C16.1591 6.45101 15.9891 5.87701 15.5471 5.81501L10.6491 5.11901L8.46506 0.792009C8.42345 0.704298 8.35781 0.630192 8.27577 0.578301C8.19372 0.526411 8.09864 0.498865 8.00156 0.498865C7.90448 0.498865 7.80939 0.526411 7.72735 0.578301C7.6453 0.630192 7.57966 0.704298 7.53806 0.792009L5.35406 5.12001L0.456057 5.81601C0.0150572 5.87801 -0.155943 6.45201 0.173057 6.76601L3.69606 10.122L2.86606 14.852V14.85ZM7.77106 12.083L4.08506 13.977L4.77906 10.02C4.79531 9.92892 4.78895 9.83523 4.76053 9.74718C4.73211 9.65913 4.6825 9.5794 4.61606 9.51501L1.71006 6.74501L5.76206 6.16901C5.84596 6.15634 5.92554 6.12352 5.99399 6.07336C6.06244 6.0232 6.1177 5.9572 6.15506 5.88101L8.00006 2.22301L9.84706 5.88101C9.88441 5.9572 9.93968 6.0232 10.0081 6.07336C10.0766 6.12352 10.1562 6.15634 10.2401 6.16901L14.2921 6.74401L11.3861 9.51401C11.3195 9.5785 11.2698 9.6584 11.2413 9.74664C11.2129 9.83488 11.2066 9.92877 11.2231 10.02L11.9171 13.977L8.23106 12.083C8.15978 12.0463 8.08075 12.0271 8.00056 12.0271C7.92036 12.0271 7.84133 12.0463 7.77006 12.083H7.77106Z" fill="#EF9F3B"/>
<path d="M5.49994 5.74999L0.999939 6.49999L4.24994 9.99999L3.49994 14.75L7.99994 12.5L12.4999 14.75L11.9999 9.99999L15.2499 6.49999L10.4999 5.49999L7.99994 1.49999L5.49994 5.74999Z" fill="#EF9F3B"/>
</g>
<g clip-path="url(#clip1_1111_1426)">
<path d="M22.8661 14.85C22.7881 15.294 23.2261 15.641 23.6121 15.443L28.0021 13.187L32.3911 15.443C32.7771 15.641 33.2151 15.294 33.1371 14.851L32.3071 10.121L35.8291 6.76501C36.1591 6.45101 35.9891 5.87701 35.5471 5.81501L30.6491 5.11901L28.4651 0.792009C28.4235 0.704298 28.3578 0.630192 28.2758 0.578301C28.1937 0.526411 28.0986 0.498865 28.0016 0.498865C27.9045 0.498865 27.8094 0.526411 27.7273 0.578301C27.6453 0.630192 27.5797 0.704298 27.5381 0.792009L25.3541 5.12001L20.4561 5.81601C20.0151 5.87801 19.8441 6.45201 20.1731 6.76601L23.6961 10.122L22.8661 14.852V14.85ZM27.7711 12.083L24.0851 13.977L24.7791 10.02C24.7953 9.92892 24.789 9.83523 24.7605 9.74718C24.7321 9.65913 24.6825 9.5794 24.6161 9.51501L21.7101 6.74501L25.7621 6.16901C25.846 6.15634 25.9255 6.12352 25.994 6.07336C26.0624 6.0232 26.1177 5.9572 26.1551 5.88101L28.0001 2.22301L29.8471 5.88101C29.8844 5.9572 29.9397 6.0232 30.0081 6.07336C30.0766 6.12352 30.1562 6.15634 30.2401 6.16901L34.2921 6.74401L31.3861 9.51401C31.3195 9.5785 31.2698 9.6584 31.2413 9.74664C31.2129 9.83488 31.2066 9.92877 31.2231 10.02L31.9171 13.977L28.2311 12.083C28.1598 12.0463 28.0807 12.0271 28.0006 12.0271C27.9204 12.0271 27.8413 12.0463 27.7701 12.083H27.7711Z" fill="#EF9F3B"/>
<path d="M25.4999 5.74999L20.9999 6.49999L24.2499 9.99999L23.4999 14.75L27.9999 12.5L32.4999 14.75L31.9999 9.99999L35.2499 6.49999L30.4999 5.49999L27.9999 1.49999L25.4999 5.74999Z" fill="#EF9F3B"/>
</g>
<g clip-path="url(#clip2_1111_1426)">
<path d="M42.8661 14.85C42.7881 15.294 43.2261 15.641 43.6121 15.443L48.0021 13.187L52.3911 15.443C52.7771 15.641 53.2151 15.294 53.1371 14.851L52.3071 10.121L55.8291 6.76501C56.1591 6.45101 55.9891 5.87701 55.5471 5.81501L50.6491 5.11901L48.4651 0.792009C48.4235 0.704298 48.3578 0.630192 48.2758 0.578301C48.1937 0.526411 48.0986 0.498865 48.0016 0.498865C47.9045 0.498865 47.8094 0.526411 47.7273 0.578301C47.6453 0.630192 47.5797 0.704298 47.5381 0.792009L45.3541 5.12001L40.4561 5.81601C40.0151 5.87801 39.8441 6.45201 40.1731 6.76601L43.6961 10.122L42.8661 14.852V14.85ZM47.7711 12.083L44.0851 13.977L44.7791 10.02C44.7953 9.92892 44.789 9.83523 44.7605 9.74718C44.7321 9.65913 44.6825 9.5794 44.6161 9.51501L41.7101 6.74501L45.7621 6.16901C45.846 6.15634 45.9255 6.12352 45.994 6.07336C46.0624 6.0232 46.1177 5.9572 46.1551 5.88101L48.0001 2.22301L49.8471 5.88101C49.8844 5.9572 49.9397 6.0232 50.0081 6.07336C50.0766 6.12352 50.1562 6.15634 50.2401 6.16901L54.2921 6.74401L51.3861 9.51401C51.3195 9.5785 51.2698 9.6584 51.2413 9.74664C51.2129 9.83488 51.2066 9.92877 51.2231 10.02L51.9171 13.977L48.2311 12.083C48.1598 12.0463 48.0807 12.0271 48.0006 12.0271C47.9204 12.0271 47.8413 12.0463 47.7701 12.083H47.7711Z" fill="#EF9F3B"/>
<path d="M45.4999 5.74999L40.9999 6.49999L44.2499 9.99999L43.4999 14.75L47.9999 12.5L52.4999 14.75L51.9999 9.99999L55.2499 6.49999L50.4999 5.49999L47.9999 1.49999L45.4999 5.74999Z" fill="#EF9F3B"/>
</g>
<g clip-path="url(#clip3_1111_1426)">
<path d="M62.8661 14.85C62.7881 15.294 63.2261 15.641 63.6121 15.443L68.0021 13.187L72.3911 15.443C72.7771 15.641 73.2151 15.294 73.1371 14.851L72.3071 10.121L75.8291 6.76501C76.1591 6.45101 75.9891 5.87701 75.5471 5.81501L70.6491 5.11901L68.4651 0.792009C68.4235 0.704298 68.3578 0.630192 68.2758 0.578301C68.1937 0.526411 68.0986 0.498865 68.0016 0.498865C67.9045 0.498865 67.8094 0.526411 67.7273 0.578301C67.6453 0.630192 67.5797 0.704298 67.5381 0.792009L65.3541 5.12001L60.4561 5.81601C60.0151 5.87801 59.8441 6.45201 60.1731 6.76601L63.6961 10.122L62.8661 14.852V14.85ZM67.7711 12.083L64.0851 13.977L64.7791 10.02C64.7953 9.92892 64.789 9.83523 64.7605 9.74718C64.7321 9.65913 64.6825 9.5794 64.6161 9.51501L61.7101 6.74501L65.7621 6.16901C65.846 6.15634 65.9255 6.12352 65.994 6.07336C66.0624 6.0232 66.1177 5.9572 66.1551 5.88101L68.0001 2.22301L69.8471 5.88101C69.8844 5.9572 69.9397 6.0232 70.0081 6.07336C70.0766 6.12352 70.1562 6.15634 70.2401 6.16901L74.2921 6.74401L71.3861 9.51401C71.3195 9.5785 71.2698 9.6584 71.2413 9.74664C71.2129 9.83488 71.2066 9.92877 71.2231 10.02L71.9171 13.977L68.2311 12.083C68.1598 12.0463 68.0807 12.0271 68.0006 12.0271C67.9204 12.0271 67.8413 12.0463 67.7701 12.083H67.7711Z" fill="#EF9F3B"/>
<path d="M65.4999 5.74999L60.9999 6.49999L64.2499 9.99999L63.4999 14.75L67.9999 12.5L72.4999 14.75L71.9999 9.99999L75.2499 6.49999L70.4999 5.49999L67.9999 1.49999L65.4999 5.74999Z" fill="#EF9F3B"/>
</g>
<g clip-path="url(#clip4_1111_1426)">
<path d="M82.8661 14.85C82.7881 15.294 83.2261 15.641 83.6121 15.443L88.0021 13.187L92.3911 15.443C92.7771 15.641 93.2151 15.294 93.1371 14.851L92.3071 10.121L95.8291 6.76501C96.1591 6.45101 95.9891 5.87701 95.5471 5.81501L90.6491 5.11901L88.4651 0.792009C88.4235 0.704298 88.3578 0.630192 88.2758 0.578301C88.1937 0.526411 88.0986 0.498865 88.0016 0.498865C87.9045 0.498865 87.8094 0.526411 87.7273 0.578301C87.6453 0.630192 87.5797 0.704298 87.5381 0.792009L85.3541 5.12001L80.4561 5.81601C80.0151 5.87801 79.8441 6.45201 80.1731 6.76601L83.6961 10.122L82.8661 14.852V14.85ZM87.7711 12.083L84.0851 13.977L84.7791 10.02C84.7953 9.92892 84.789 9.83523 84.7605 9.74718C84.7321 9.65913 84.6825 9.5794 84.6161 9.51501L81.7101 6.74501L85.7621 6.16901C85.846 6.15634 85.9255 6.12352 85.994 6.07336C86.0624 6.0232 86.1177 5.9572 86.1551 5.88101L88.0001 2.22301L89.8471 5.88101C89.8844 5.9572 89.9397 6.0232 90.0081 6.07336C90.0766 6.12352 90.1562 6.15634 90.2401 6.16901L94.2921 6.74401L91.3861 9.51401C91.3195 9.5785 91.2698 9.6584 91.2413 9.74664C91.2129 9.83488 91.2066 9.92877 91.2231 10.02L91.9171 13.977L88.2311 12.083C88.1598 12.0463 88.0807 12.0271 88.0006 12.0271C87.9204 12.0271 87.8413 12.0463 87.7701 12.083H87.7711Z" fill="#EF9F3B"/>
</g>
<defs>
<clipPath id="clip0_1111_1426">
<rect width="16" height="16" fill="white"/>
</clipPath>
<clipPath id="clip1_1111_1426">
<rect width="16" height="16" fill="white" transform="translate(20)"/>
</clipPath>
<clipPath id="clip2_1111_1426">
<rect width="16" height="16" fill="white" transform="translate(40)"/>
</clipPath>
<clipPath id="clip3_1111_1426">
<rect width="16" height="16" fill="white" transform="translate(60)"/>
</clipPath>
<clipPath id="clip4_1111_1426">
<rect width="16" height="16" fill="white" transform="translate(80)"/>
</clipPath>
</defs>
</svg>
