<svg width="16" height="16" viewBox="0 0 16 16" fill="none" xmlns="http://www.w3.org/2000/svg">
<path d="M2.48 2.28651C2.81206 2.09 3.19082 1.98633 3.57666 1.98633C3.96251 1.98633 4.34127 2.09 4.67333 2.28651L10.6667 5.89318V3.99984C10.6667 3.46941 10.8774 2.9607 11.2525 2.58563C11.6275 2.21056 12.1362 1.99984 12.6667 1.99984C13.1971 1.99984 13.7058 2.21056 14.0809 2.58563C14.456 2.9607 14.6667 3.46941 14.6667 3.99984V11.9998C14.6667 12.5303 14.456 13.039 14.0809 13.4141C13.7058 13.7891 13.1971 13.9998 12.6667 13.9998C12.1362 13.9998 11.6275 13.7891 11.2525 13.4141C10.8774 13.039 10.6667 12.5303 10.6667 11.9998V10.1065L4.66666 13.6865C4.32846 13.8901 3.94144 13.9984 3.54666 13.9998C3.17001 13.9995 2.79999 13.9007 2.47333 13.7132C2.11983 13.5139 1.82669 13.2229 1.62486 12.8709C1.42303 12.5189 1.32001 12.1189 1.32666 11.7132V4.27984C1.32187 3.87458 1.42647 3.47552 1.62945 3.12471C1.83242 2.7739 2.12626 2.48433 2.48 2.28651ZM12 11.9998C12 12.1767 12.0702 12.3462 12.1953 12.4712C12.3203 12.5963 12.4899 12.6665 12.6667 12.6665C12.8435 12.6665 13.013 12.5963 13.1381 12.4712C13.2631 12.3462 13.3333 12.1767 13.3333 11.9998V3.99984C13.3333 3.82303 13.2631 3.65346 13.1381 3.52844C13.013 3.40342 12.8435 3.33318 12.6667 3.33318C12.4899 3.33318 12.3203 3.40342 12.1953 3.52844C12.0702 3.65346 12 3.82303 12 3.99984V11.9998ZM2.66666 11.7198C2.66285 11.8886 2.70485 12.0552 2.7882 12.2019C2.87155 12.3486 2.99313 12.47 3.14 12.5532C3.26853 12.6315 3.41615 12.6729 3.56666 12.6729C3.71718 12.6729 3.86479 12.6315 3.99333 12.5532L10.2133 8.81984C10.3525 8.73298 10.4672 8.61213 10.5468 8.46867C10.6264 8.32522 10.6681 8.16388 10.6681 7.99984C10.6681 7.83581 10.6264 7.67447 10.5468 7.53101C10.4672 7.38756 10.3525 7.26671 10.2133 7.17984L4 3.45984C3.86642 3.37547 3.71131 3.33149 3.55333 3.33318C3.4082 3.33547 3.266 3.37446 3.14 3.44651C2.99313 3.52964 2.87155 3.65104 2.7882 3.79778C2.70485 3.94453 2.66285 4.11112 2.66666 4.27984V11.7198Z" fill="#0061FF"/>
</svg>
