<svg width="65" height="65" viewBox="0 0 65 65" fill="none" xmlns="http://www.w3.org/2000/svg">
<path d="M55.25 0H9.75C7.16414 0 4.68419 1.02723 2.85571 2.85571C1.02723 4.68419 0 7.16414 0 9.75V55.25C0 57.8359 1.02723 60.3158 2.85571 62.1443C4.68419 63.9728 7.16414 65 9.75 65H55.25C55.7846 64.9926 56.3174 64.9382 56.8425 64.8375L57.8175 64.61H58.045H58.2075L59.41 64.155L59.8325 63.9275C60.1575 63.7325 60.515 63.57 60.84 63.3425C61.274 63.0232 61.6865 62.6758 62.075 62.3025L62.3025 62.01C62.6216 61.6867 62.915 61.3389 63.18 60.97L63.4725 60.5475C63.6995 60.1857 63.8952 59.8051 64.0575 59.41C64.1467 59.2541 64.2228 59.091 64.285 58.9225C64.4475 58.5325 64.545 58.11 64.675 57.6875V57.2C64.8593 56.565 64.9683 55.9105 65 55.25V9.75C65 7.16414 63.9728 4.68419 62.1443 2.85571C60.3158 1.02723 57.8359 0 55.25 0ZM9.75 58.5C8.88805 58.5 8.0614 58.1576 7.4519 57.5481C6.84241 56.9386 6.5 56.112 6.5 55.25V41.2425L17.1925 30.5175C17.4946 30.2129 17.8541 29.9711 18.2501 29.8061C18.6462 29.6411 19.071 29.5562 19.5 29.5562C19.929 29.5562 20.3538 29.6411 20.7499 29.8061C21.1459 29.9711 21.5054 30.2129 21.8075 30.5175L49.7575 58.5H9.75ZM58.5 55.25C58.4969 55.6507 58.4198 56.0474 58.2725 56.42C58.1982 56.5784 58.1113 56.7306 58.0125 56.875C57.9255 57.0126 57.8277 57.143 57.72 57.265L40.3325 39.8775L43.1925 37.0175C43.4946 36.7129 43.8541 36.4711 44.2501 36.3061C44.6462 36.1411 45.071 36.0562 45.5 36.0562C45.929 36.0562 46.3538 36.1411 46.7499 36.3061C47.1459 36.4711 47.5054 36.7129 47.8075 37.0175L58.5 47.7425V55.25ZM58.5 38.545L52.39 32.5C50.5301 30.7352 48.0639 29.7514 45.5 29.7514C42.9361 29.7514 40.4699 30.7352 38.61 32.5L35.75 35.36L26.39 26C24.5301 24.2352 22.0639 23.2514 19.5 23.2514C16.9361 23.2514 14.4699 24.2352 12.61 26L6.5 32.045V9.75C6.5 8.88805 6.84241 8.0614 7.4519 7.4519C8.0614 6.84241 8.88805 6.5 9.75 6.5H55.25C56.112 6.5 56.9386 6.84241 57.5481 7.4519C58.1576 8.0614 58.5 8.88805 58.5 9.75V38.545Z" fill="#4D90FF"/>
</svg>
