<svg width="20" height="20" viewBox="0 0 20 20" fill="none" xmlns="http://www.w3.org/2000/svg">
<path d="M10.0001 1.66669C8.35191 1.66669 6.74074 2.15543 5.37033 3.07111C3.99992 3.98679 2.93182 5.28827 2.30109 6.81099C1.67036 8.33371 1.50533 10.0093 1.82687 11.6258C2.14842 13.2423 2.94209 14.7271 4.10753 15.8926C5.27297 17.058 6.75782 17.8517 8.37433 18.1732C9.99084 18.4948 11.6664 18.3297 13.1891 17.699C14.7118 17.0683 16.0133 16.0002 16.929 14.6298C17.8447 13.2594 18.3334 11.6482 18.3334 10C18.3334 8.90567 18.1179 7.82204 17.6991 6.81099C17.2803 5.79994 16.6665 4.88129 15.8926 4.10746C15.1188 3.33364 14.2002 2.71981 13.1891 2.30102C12.1781 1.88224 11.0944 1.66669 10.0001 1.66669ZM10.0001 16.6667C8.68154 16.6667 7.39261 16.2757 6.29628 15.5432C5.19996 14.8106 4.34547 13.7694 3.84089 12.5512C3.3363 11.3331 3.20428 9.99263 3.46152 8.69942C3.71875 7.40621 4.35369 6.21833 5.28604 5.28598C6.21839 4.35363 7.40628 3.71869 8.69948 3.46145C9.99269 3.20422 11.3331 3.33624 12.5513 3.84082C13.7695 4.34541 14.8107 5.19989 15.5432 6.29622C16.2758 7.39255 16.6668 8.68148 16.6668 10C16.6668 11.7681 15.9644 13.4638 14.7141 14.7141C13.4639 15.9643 11.7682 16.6667 10.0001 16.6667ZM13.3334 9.16669H10.8334V6.66669C10.8334 6.44567 10.7456 6.23371 10.5893 6.07743C10.4331 5.92115 10.2211 5.83335 10.0001 5.83335C9.77907 5.83335 9.56711 5.92115 9.41083 6.07743C9.25455 6.23371 9.16675 6.44567 9.16675 6.66669V9.16669H6.66675C6.44574 9.16669 6.23378 9.25449 6.0775 9.41077C5.92122 9.56705 5.83342 9.77901 5.83342 10C5.83342 10.221 5.92122 10.433 6.0775 10.5893C6.23378 10.7456 6.44574 10.8334 6.66675 10.8334H9.16675V13.3334C9.16675 13.5544 9.25455 13.7663 9.41083 13.9226C9.56711 14.0789 9.77907 14.1667 10.0001 14.1667C10.2211 14.1667 10.4331 14.0789 10.5893 13.9226C10.7456 13.7663 10.8334 13.5544 10.8334 13.3334V10.8334H13.3334C13.5544 10.8334 13.7664 10.7456 13.9227 10.5893C14.079 10.433 14.1668 10.221 14.1668 10C14.1668 9.77901 14.079 9.56705 13.9227 9.41077C13.7664 9.25449 13.5544 9.16669 13.3334 9.16669Z" fill="#75839D"/>
</svg>
