<svg width="118" height="51" viewBox="0 0 118 51" fill="none" xmlns="http://www.w3.org/2000/svg">
<path d="M1 18.25L1 32.25" stroke="#75839D" stroke-width="2" stroke-linecap="round"/>
<path d="M5 11.25L5 39.25" stroke="#75839D" stroke-width="2" stroke-linecap="round"/>
<path d="M9 1V49.5" stroke="#75839D" stroke-width="2" stroke-linecap="round"/>
<path d="M13 10.75V39.75" stroke="#75839D" stroke-width="2" stroke-linecap="round"/>
<path d="M17 18.25L17 32.25" stroke="#75839D" stroke-width="2" stroke-linecap="round"/>
<path d="M21 10.25L21 40.25" stroke="#75839D" stroke-width="2" stroke-linecap="round"/>
<path d="M25 18.25L25 32.25" stroke="#75839D" stroke-width="2" stroke-linecap="round"/>
<path d="M29 18.25L29 32.25" stroke="#75839D" stroke-width="2" stroke-linecap="round"/>
<path d="M33 24.25L33 26.25" stroke="#75839D" stroke-width="2" stroke-linecap="round"/>
<path d="M65 18.25L65 32.25" stroke="#75839D" stroke-width="2" stroke-linecap="round"/>
<path d="M61 11.25L61 39.25" stroke="#75839D" stroke-width="2" stroke-linecap="round"/>
<path d="M57 1V49.5" stroke="#75839D" stroke-width="2" stroke-linecap="round"/>
<path d="M53 10.75V39.75" stroke="#75839D" stroke-width="2" stroke-linecap="round"/>
<path d="M49 18.25L49 32.25" stroke="#75839D" stroke-width="2" stroke-linecap="round"/>
<path d="M45 5L45 45" stroke="#75839D" stroke-width="2" stroke-linecap="round"/>
<path d="M41 18.25L41 32.25" stroke="#75839D" stroke-width="2" stroke-linecap="round"/>
<path d="M37 12L37 38" stroke="#75839D" stroke-width="2" stroke-linecap="round"/>
<path d="M101 18.25L101 32.25" stroke="#75839D" stroke-width="2" stroke-linecap="round"/>
<path d="M97 11.25L97 39.25" stroke="#75839D" stroke-width="2" stroke-linecap="round"/>
<path d="M93 1V49.5" stroke="#75839D" stroke-width="2" stroke-linecap="round"/>
<path d="M89 10.75V39.75" stroke="#75839D" stroke-width="2" stroke-linecap="round"/>
<path d="M85 20L85 30" stroke="#75839D" stroke-width="2" stroke-linecap="round"/>
<path d="M81 10.25L81 40.25" stroke="#75839D" stroke-width="2" stroke-linecap="round"/>
<path d="M77 5L77 45" stroke="#75839D" stroke-width="2" stroke-linecap="round"/>
<path d="M73 18.25L73 32.25" stroke="#75839D" stroke-width="2" stroke-linecap="round"/>
<path d="M69 24.25L69 26.25" stroke="#75839D" stroke-width="2" stroke-linecap="round"/>
<path d="M105 15L105 35" stroke="#75839D" stroke-width="2" stroke-linecap="round"/>
<path d="M109 11.25L109 39.25" stroke="#75839D" stroke-width="2" stroke-linecap="round"/>
<path d="M113 1V49.5" stroke="#75839D" stroke-width="2" stroke-linecap="round"/>
<path d="M117 10.75V39.75" stroke="#75839D" stroke-width="2" stroke-linecap="round"/>
</svg>
