<svg width="16" height="16" viewBox="0 0 16 16" fill="none" xmlns="http://www.w3.org/2000/svg">
<path d="M14 9.33333C13.8232 9.33333 13.6536 9.40357 13.5286 9.5286C13.4036 9.65362 13.3333 9.82319 13.3333 10V12.3933L10.2933 9.33333C10.2311 9.26881 10.1566 9.21749 10.0741 9.18244C9.99163 9.14738 9.90294 9.12932 9.81332 9.12932C9.72371 9.12932 9.63502 9.14738 9.55254 9.18244C9.47007 9.21749 9.39551 9.26881 9.33332 9.33333C9.20916 9.45824 9.13946 9.62721 9.13946 9.80333C9.13946 9.97946 9.20916 10.1484 9.33332 10.2733L12.3933 13.3333H9.99999C9.82318 13.3333 9.65361 13.4036 9.52859 13.5286C9.40356 13.6536 9.33332 13.8232 9.33332 14C9.33332 14.1768 9.40356 14.3464 9.52859 14.4714C9.65361 14.5964 9.82318 14.6667 9.99999 14.6667H14C14.0871 14.6656 14.1732 14.6475 14.2533 14.6133C14.4162 14.5457 14.5457 14.4162 14.6133 14.2533C14.6475 14.1732 14.6656 14.0871 14.6667 14V10C14.6667 9.82319 14.5964 9.65362 14.4714 9.5286C14.3464 9.40357 14.1768 9.33333 14 9.33333ZM5.79999 6.66667C5.92752 6.77589 6.09157 6.83296 6.25936 6.82648C6.42714 6.82 6.5863 6.75044 6.70503 6.63171C6.82376 6.51298 6.89332 6.35382 6.8998 6.18604C6.90628 6.01825 6.84921 5.8542 6.73999 5.72667L2.55999 1.54C2.4977 1.47821 2.42382 1.42933 2.34259 1.39615C2.26137 1.36298 2.17439 1.34616 2.08666 1.34667C1.99892 1.34616 1.91194 1.36298 1.83072 1.39615C1.74949 1.42933 1.67562 1.47821 1.61332 1.54C1.55084 1.60198 1.50124 1.67571 1.4674 1.75695C1.43355 1.83819 1.41612 1.92533 1.41612 2.01334C1.41612 2.10134 1.43355 2.18848 1.4674 2.26972C1.50124 2.35096 1.55084 2.42469 1.61332 2.48667L5.79999 6.66667ZM9.99999 2.66667H12.3933L1.52666 13.5267C1.40112 13.6522 1.3306 13.8225 1.3306 14C1.3306 14.1775 1.40112 14.3478 1.52666 14.4733C1.65219 14.5989 1.82246 14.6694 1.99999 14.6694C2.17752 14.6694 2.34779 14.5989 2.47332 14.4733L13.3333 3.60667V6C13.3333 6.17681 13.4036 6.34638 13.5286 6.47141C13.6536 6.59643 13.8232 6.66667 14 6.66667C14.1768 6.66667 14.3464 6.59643 14.4714 6.47141C14.5964 6.34638 14.6667 6.17681 14.6667 6V2C14.6656 1.91288 14.6475 1.82682 14.6133 1.74667C14.5457 1.58377 14.4162 1.45432 14.2533 1.38667C14.1732 1.35251 14.0871 1.33439 14 1.33334H9.99999C9.82318 1.33334 9.65361 1.40357 9.52859 1.5286C9.40356 1.65362 9.33332 1.82319 9.33332 2C9.33332 2.17681 9.40356 2.34638 9.52859 2.47141C9.65361 2.59643 9.82318 2.66667 9.99999 2.66667Z" fill="white"/>
</svg>
