<svg width="32" height="32" viewBox="0 0 32 32" fill="none" xmlns="http://www.w3.org/2000/svg">
<path d="M28 18.6667C27.6464 18.6667 27.3073 18.8072 27.0572 19.0573C26.8072 19.3073 26.6667 19.6465 26.6667 20.0001L26.6667 24.7867L20.5867 18.6667C20.4623 18.5377 20.3132 18.4351 20.1483 18.365C19.9833 18.2948 19.8059 18.2587 19.6267 18.2587C19.4475 18.2587 19.2701 18.2948 19.1051 18.365C18.9402 18.4351 18.7911 18.5377 18.6667 18.6667C18.4184 18.9166 18.279 19.2545 18.279 19.6067C18.279 19.959 18.4184 20.2969 18.6667 20.5467L24.7867 26.6667L20 26.6667C19.6464 26.6667 19.3073 26.8072 19.0572 27.0573C18.8072 27.3073 18.6667 27.6465 18.6667 28.0001C18.6667 28.3537 18.8072 28.6928 19.0572 28.9429C19.3073 29.1929 19.6464 29.3334 20 29.3334L28 29.3334C28.1743 29.3313 28.3464 29.2951 28.5067 29.2267C28.8325 29.0914 29.0914 28.8325 29.2267 28.5067C29.295 28.3464 29.3313 28.1743 29.3334 28.0001L29.3334 20.0001C29.3334 19.6465 29.1929 19.3073 28.9428 19.0573C28.6928 18.8072 28.3537 18.6667 28 18.6667ZM11.6 13.3334C11.8551 13.5518 12.1832 13.666 12.5188 13.653C12.8543 13.6401 13.1727 13.501 13.4101 13.2635C13.6476 13.026 13.7867 12.7077 13.7997 12.3722C13.8126 12.0366 13.6985 11.7085 13.48 11.4534L5.12004 3.08008C4.99545 2.95651 4.8477 2.85874 4.68525 2.79239C4.5228 2.72603 4.34885 2.6924 4.17337 2.69342C3.9979 2.6924 3.82395 2.72603 3.6615 2.79239C3.49905 2.85874 3.35129 2.95651 3.22671 3.08008C3.10174 3.20403 3.00254 3.3515 2.93485 3.51398C2.86716 3.67646 2.83231 3.85073 2.83231 4.02675C2.83231 4.20276 2.86716 4.37704 2.93485 4.53952C3.00254 4.702 3.10174 4.84946 3.22671 4.97342L11.6 13.3334ZM20 5.33341L24.7867 5.33341L3.05338 27.0534C2.80231 27.3045 2.66125 27.645 2.66125 28.0001C2.66125 28.3551 2.80231 28.6957 3.05338 28.9467C3.30445 29.1978 3.64497 29.3389 4.00004 29.3389C4.35511 29.3389 4.69564 29.1978 4.94671 28.9467L26.6667 7.21341L26.6667 12.0001C26.6667 12.3537 26.8072 12.6928 27.0572 12.9429C27.3073 13.1929 27.6464 13.3334 28 13.3334C28.3537 13.3334 28.6928 13.1929 28.9428 12.9429C29.1929 12.6928 29.3334 12.3537 29.3334 12.0001L29.3334 4.00008C29.3313 3.82584 29.295 3.65371 29.2267 3.49341C29.0914 3.16762 28.8325 2.90871 28.5067 2.77341C28.3464 2.70509 28.1743 2.66885 28 2.66675L20 2.66675C19.6464 2.66675 19.3073 2.80722 19.0572 3.05727C18.8072 3.30732 18.6667 3.64646 18.6667 4.00008C18.6667 4.3537 18.8072 4.69284 19.0572 4.94289C19.3073 5.19294 19.6464 5.33341 20 5.33341Z" fill="#0061FF"/>
</svg>
